<svg width="32" height="32" viewBox="0 0 32 32" fill="none" xmlns="http://www.w3.org/2000/svg">
<path fill-rule="evenodd" clip-rule="evenodd" d="M3.69822 0.769226C2.08058 0.769226 0.769226 2.08098 0.769226 3.69911V22.4504C0.769226 24.0685 2.08058 25.3802 3.69822 25.3802H23.6154L28.5916 30.7409C29.5335 31.7555 31.2308 31.0888 31.2308 29.7042V25.3802V3.69911C31.2308 2.08098 29.9194 0.769226 28.3018 0.769226H3.69822ZM6.62721 9.55887C6.62721 8.58799 7.41402 7.80094 8.38461 7.80094H23.6154C24.5859 7.80094 25.3728 8.58799 25.3728 9.55887C25.3728 10.5297 24.5859 11.3168 23.6154 11.3168H8.38461C7.41402 11.3168 6.62721 10.5297 6.62721 9.55887ZM6.62721 16.5906C6.62721 15.6197 7.41402 14.8327 8.38461 14.8327H18.929C19.8995 14.8327 20.6864 15.6197 20.6864 16.5906C20.6864 17.5614 19.8995 18.3485 18.929 18.3485H8.38461C7.41402 18.3485 6.62721 17.5614 6.62721 16.5906Z" fill="white"/>
</svg>
