<svg width="20" height="16" viewBox="0 0 20 16" fill="none" xmlns="http://www.w3.org/2000/svg">
<path fill-rule="evenodd" clip-rule="evenodd" d="M0 5.89478C1.37032 5.89478 2.72721 6.15616 3.99322 6.66399C5.25922 7.17183 6.40955 7.91618 7.37851 8.85454C8.34747 9.7929 9.11609 10.9069 9.64048 12.1329C10.1649 13.3589 10.4348 14.673 10.4348 16H8.69565C8.69565 14.8942 8.47073 13.7991 8.03373 12.7774C7.59674 11.7558 6.95622 10.8274 6.14876 10.0455C5.34129 9.26349 4.38269 8.6432 3.32768 8.22C2.27268 7.7968 1.14193 7.57899 0 7.57899V5.89478Z" fill="#0A0A0A"/>
<path fill-rule="evenodd" clip-rule="evenodd" d="M0 9.26306C0.913543 9.26306 1.81814 9.43731 2.66215 9.77587C3.50615 10.1144 4.27303 10.6107 4.919 11.2362C5.56498 11.8618 6.07739 12.6045 6.42699 13.4218C6.77659 14.2392 6.95652 15.1152 6.95652 15.9999H5.21739C5.21739 15.3364 5.08244 14.6794 4.82024 14.0663C4.55804 13.4533 4.17373 12.8963 3.68925 12.4272C3.20477 11.958 2.62961 11.5858 1.99661 11.3319C1.36361 11.078 0.685158 10.9473 0 10.9473V9.26306Z" fill="#0A0A0A"/>
<path fill-rule="evenodd" clip-rule="evenodd" d="M0 16L-1.44438e-07 12.6316C0.456772 12.6316 0.909071 12.7187 1.33107 12.888C1.69337 13.0333 2.02724 13.2367 2.31884 13.4893C2.3669 13.531 2.4138 13.5739 2.4595 13.6182C2.5052 13.6624 2.54956 13.7078 2.59254 13.7544C2.85336 14.0368 3.06343 14.3601 3.21349 14.711C3.38829 15.1196 3.47826 15.5577 3.47826 16L0 16Z" fill="#0A0A0A"/>
<path fill-rule="evenodd" clip-rule="evenodd" d="M0 2.25641C0 1.01023 1.04784 0 2.34043 0H17.6596C18.9522 0 20 1.01023 20 2.25641V13.7436C20 14.9898 18.9522 16 17.6596 16H12.5532V14.7692H17.6596C18.2471 14.7692 18.7234 14.31 18.7234 13.7436V2.25641C18.7234 1.68996 18.2471 1.23077 17.6596 1.23077H2.34043C1.75289 1.23077 1.2766 1.68996 1.2766 2.25641V3.89744H0V2.25641Z" fill="#0A0A0A"/>
</svg>
