<svg width="14" height="14" viewBox="0 0 14 14" fill="none" xmlns="http://www.w3.org/2000/svg">
<path d="M5.53334 5.53337L2.98001 11.02L8.46668 8.46671L11.02 2.98004L5.53334 5.53337ZM7.72001 7.51338C7.58001 7.70671 7.38001 7.83337 7.14668 7.87338C7.10001 7.88004 7.04668 7.88671 7.00001 7.88671C6.81334 7.88671 6.64001 7.83337 6.48668 7.72004C6.29334 7.58004 6.16668 7.38004 6.12668 7.14671C6.08668 6.91337 6.14001 6.67337 6.28001 6.48671C6.42001 6.29337 6.62001 6.16671 6.85334 6.12671C7.08668 6.08671 7.32001 6.14004 7.51335 6.28004C7.70668 6.42004 7.83335 6.62004 7.87335 6.85337C7.91335 7.08671 7.86001 7.32004 7.72001 7.51338ZM7.00001 1.00004C10.3067 1.00004 13 3.69337 13 7.00004C13 10.3067 10.3067 13 7.00001 13C3.69334 13 1.00001 10.3067 1.00001 7.00004C1.00001 3.69337 3.69334 1.00004 7.00001 1.00004ZM7.00001 0.333374C3.32001 0.333374 0.333344 3.32004 0.333344 7.00004C0.333344 10.68 3.32001 13.6667 7.00001 13.6667C10.68 13.6667 13.6667 10.68 13.6667 7.00004C13.6667 3.32004 10.68 0.333374 7.00001 0.333374Z" fill="#030303"/>
</svg>
